<?xml version="1.0" encoding="UTF-8" standalone="no"?>
<svg width="380px" height="331px" viewBox="0 0 380 331" version="1.1" xmlns="http://www.w3.org/2000/svg" xmlns:xlink="http://www.w3.org/1999/xlink">
    <!-- Generator: Sketch 42 (36781) - http://www.bohemiancoding.com/sketch -->
    <title>Logo</title>
    <desc>Created with Sketch.</desc>
    <defs></defs>
    <g id="Page-1" stroke="none" stroke-width="1" fill="none" fill-rule="evenodd">
        <g id="Logo">
            <path d="M213.055,299.41 L215.638,299 L225.016,325.592 C225.375,326.632 225.647,327.312 225.966,327.946 C226.189,328.354 226.691,329.214 227.823,329.261 L227.823,330.256 C227.823,330.256 225.47,330.076 223.295,330.076 C220.669,330.076 218.221,330.256 218.221,330.256 L218.221,329.261 C218.493,329.261 219.578,329.17 220.167,328.628 C220.44,328.354 220.575,327.946 220.575,327.447 C220.575,326.904 220.214,325.817 219.848,324.684 L217.678,318.163 L208.524,318.163 L206.172,324.641 C205.669,326 205.399,326.86 205.399,327.404 C205.399,328.081 205.63,328.307 205.9,328.58 C206.354,329.034 207.35,329.261 207.8,329.261 L207.8,330.256 C207.8,330.256 205.717,330.076 203.499,330.076 C201.098,330.076 199.512,330.256 199.512,330.256 L199.512,329.261 C201.004,329.261 201.64,327.946 201.823,327.63 C202.048,327.176 202.59,325.908 202.774,325.458 L213.055,299.41 Z M212.105,308.379 L209.343,316.034 L216.954,316.034 L214.322,308.379 C213.421,305.751 213.326,304.618 213.326,304.44 C213.283,304.618 213.102,305.614 212.105,308.379 Z M34.171,300.268 C28.374,302.398 24.433,307.517 24.433,315.581 C24.433,319.656 25.428,322.782 27.15,325.094 C29.822,328.672 34.171,330.438 39.88,330.438 C42.37,330.438 45.904,330.124 47.807,329.441 L47.807,328.856 C47.807,326.227 47.988,323.826 47.988,323.826 L46.765,323.826 C46.765,323.915 46.674,325.545 45.812,326.589 C44.59,328.128 42.597,328.307 40.694,328.307 C32.496,328.307 29.325,322.83 29.325,314.99 C29.325,302.309 36.481,301.448 40.376,301.448 C42.235,301.448 44.501,301.583 45.812,302.897 C46.991,304.076 46.945,305.387 46.945,305.479 L48.124,305.479 C48.124,305.479 48.033,304.346 48.033,302.668 C48.033,300.993 48.124,299.725 48.124,299.725 C48.124,299.725 44.996,299.227 41.419,299.227 C39.155,299.227 36.481,299.41 34.171,300.268 Z M0.727,306.973 C0.727,310.87 2.582,312.772 5.846,314.99 L8.518,316.847 C11.144,318.662 13.274,319.93 13.274,323.192 C13.274,327.583 9.876,328.4 6.888,328.4 C5.391,328.4 3.354,327.858 2.312,326.589 C1.678,325.774 1.315,324.822 1.269,323.826 L0,323.826 C0,323.826 0.182,326 0.182,328.264 L0.182,329.441 C2.084,330.124 4.531,330.438 7.385,330.438 C10.057,330.438 17.531,329.986 17.531,321.833 C17.531,317.167 14.678,315.264 11.959,313.45 L9.016,311.459 C6.342,309.647 4.757,308.605 4.757,305.751 C4.757,303.078 6.252,301.219 10.42,301.219 C12.095,301.219 13.637,301.675 14.633,302.668 C15.312,303.35 15.72,304.392 15.764,305.479 L16.944,305.479 C16.944,305.479 16.853,304.346 16.853,302.352 C16.853,300.993 16.944,299.725 16.944,299.725 C16.944,299.725 14.316,299.227 10.284,299.227 C1.496,299.227 0.727,304.845 0.727,306.973 Z M351.792,300.451 L351.792,299.453 C351.792,299.453 354.058,299.634 355.775,299.634 C358.54,299.634 360.216,299.498 361.708,299.498 C363.388,299.498 365.608,299.546 367.328,300.045 C372.401,301.448 372.991,305.525 372.991,307.562 C372.991,314.448 366.786,315.988 366.421,316.077 C366.421,316.077 371.087,321.921 373.716,325.094 C375.798,327.63 377.426,329.214 379.333,329.261 L379.333,330.167 C379.333,330.167 377.928,330.394 375.392,330.394 C372.355,330.394 371.357,329.577 369.052,326.769 C367.784,325.231 362.888,318.614 361.891,317.119 L359.307,317.119 L359.307,322.964 C359.307,326.725 359.49,327.583 360.303,328.4 C360.852,328.944 361.755,329.214 362.392,329.261 L362.392,330.256 C362.392,330.256 359.673,330.076 357.136,330.076 C354.69,330.076 351.698,330.256 351.698,330.256 L351.698,329.261 C352.336,329.214 353.284,328.944 354.012,328.081 C354.825,327.131 354.873,325.774 354.873,321.513 L354.873,306.747 C354.873,302.986 354.735,302.126 353.923,301.313 C353.374,300.766 352.424,300.495 351.792,300.451 Z M359.307,315.038 C359.307,315.038 360.303,315.264 362.299,315.264 C362.841,315.264 363.388,315.172 363.702,315.127 C365.967,314.718 368.055,312.772 368.055,307.971 C368.055,302.034 364.155,301.313 361.484,301.313 C360.303,301.313 359.307,301.492 359.307,301.492 L359.307,315.038 Z M325.003,300.451 C325.641,300.495 326.588,300.766 327.132,301.313 C327.946,302.126 328.081,302.986 328.081,306.747 L328.081,321.513 C328.081,325.774 328.04,327.131 327.22,328.081 C326.501,328.944 325.546,329.214 324.915,329.261 L324.915,330.256 C324.915,330.256 328.177,330.167 332.387,330.167 L344.118,330.167 L344.118,329.214 C344.118,325.817 344.302,323.915 344.302,323.915 L343.076,323.915 C343.076,324.006 342.941,326.044 341.903,327.131 C341.041,328.037 339.908,328.081 338.004,328.081 L335.466,328.081 C333.068,328.081 332.611,327.766 332.611,325.68 L332.611,315.308 L337.189,315.308 C339.047,315.308 339.997,315.4 340.675,316.171 C341.495,317.075 341.495,318.479 341.495,318.524 L342.668,318.524 C342.668,318.524 342.533,317.211 342.533,314.313 C342.533,311.413 342.626,310.01 342.626,310.01 L341.495,310.01 C341.495,310.053 341.535,311.459 340.722,312.365 C340.043,313.134 339.047,313.271 337.236,313.271 L332.611,313.271 L332.611,301.718 L337.778,301.718 C339.366,301.718 340.81,301.718 341.719,302.533 C342.988,303.666 342.898,305.296 342.898,305.387 L344.031,305.387 C344.031,305.387 343.896,303.893 343.896,300.63 L343.896,299.634 L332.117,299.634 C328.631,299.634 325.003,299.453 325.003,299.453 L325.003,300.451 Z M314.21,299.634 C311.762,299.634 309.543,299.453 309.543,299.453 L309.543,300.451 C310.175,300.495 311.083,300.766 311.625,301.313 C312.441,302.126 312.576,302.986 312.576,306.747 L312.576,323.279 C312.576,323.279 312.121,322.375 311.125,320.879 L296.768,299.498 C296.768,299.498 295.548,299.591 293.595,299.591 C291.242,299.591 289.16,299.453 289.16,299.453 L289.16,300.451 C289.792,300.495 290.738,300.766 291.29,301.313 C292.103,302.126 292.24,302.986 292.24,306.747 L292.24,321.513 C292.24,325.774 292.191,327.131 291.377,328.081 C290.651,328.944 289.702,329.214 289.065,329.261 L289.065,330.256 C289.065,330.256 291.016,330.076 293.553,330.076 C295.861,330.076 298.084,330.256 298.084,330.256 L298.084,329.261 C297.446,329.214 296.545,328.944 295.996,328.4 C295.183,327.583 294.998,326.725 294.998,322.964 L294.998,304.71 C295.045,304.798 295.411,305.57 296.089,306.565 L312.079,330.346 L315.384,330.346 L315.384,308.196 C315.384,303.941 315.43,302.581 316.245,301.629 C316.969,300.766 317.919,300.495 318.556,300.451 L318.556,299.453 C318.556,299.453 317.2,299.634 314.21,299.634 Z M232.326,300.451 L232.326,299.453 C232.326,299.453 234.588,299.634 236.311,299.634 C239.072,299.634 240.747,299.498 242.244,299.498 C243.92,299.498 246.138,299.546 247.86,300.045 C252.933,301.448 253.522,305.525 253.522,307.562 C253.522,314.448 247.317,315.988 246.951,316.077 C246.951,316.077 251.623,321.921 254.247,325.094 C256.33,327.63 257.964,329.214 259.864,329.261 L259.864,330.167 C259.864,330.167 258.46,330.394 255.923,330.394 C252.892,330.394 251.895,329.577 249.583,326.769 C248.313,325.231 243.419,318.614 242.423,317.119 L239.843,317.119 L239.843,322.964 C239.843,326.725 240.022,327.583 240.841,328.4 C241.384,328.944 242.287,329.214 242.923,329.261 L242.923,330.256 C242.923,330.256 240.205,330.076 237.667,330.076 C235.22,330.076 232.23,330.256 232.23,330.256 L232.23,329.261 C232.868,329.214 233.816,328.944 234.541,328.081 C235.355,327.131 235.403,325.774 235.403,321.513 L235.403,306.747 C235.403,302.986 235.266,302.126 234.453,301.313 C233.911,300.766 232.955,300.495 232.326,300.451 Z M239.843,315.038 C239.843,315.038 240.841,315.264 242.835,315.264 C243.376,315.264 243.92,315.172 244.239,315.127 C246.504,314.718 248.585,312.772 248.585,307.971 C248.585,302.034 244.687,301.313 242.013,301.313 C240.841,301.313 239.843,301.492 239.843,301.492 L239.843,315.038 Z M175.127,300.451 C175.759,300.495 176.709,300.766 177.257,301.313 C178.071,302.126 178.206,302.986 178.206,306.747 L178.206,321.513 C178.206,325.774 178.16,327.131 177.345,328.081 C176.621,328.944 175.672,329.214 175.034,329.261 L175.034,330.256 C175.034,330.256 178.113,330.076 180.608,330.076 C182.282,330.076 186.454,330.256 186.454,330.256 L186.454,329.214 C186.359,329.214 184.053,329.17 183.279,327.946 C182.826,327.268 182.737,326.315 182.737,323.373 L182.737,301.448 C183.279,301.4 184.229,301.357 184.731,301.357 C190.847,301.357 191.932,304.845 191.932,308.331 C191.932,310.596 191.297,312.59 190.122,313.77 C188.942,314.902 187.355,315.536 185.186,315.536 C184.682,315.536 184.189,315.489 184.189,315.489 L184.189,316.622 C184.189,316.622 185.225,316.984 187.037,316.984 C189.127,316.984 196.822,316.397 196.822,307.745 C196.822,302.897 193.833,300.814 190.617,299.997 C188.807,299.546 186.454,299.498 185.545,299.498 C183.505,299.498 180.831,299.634 179.523,299.634 C176.803,299.681 175.127,299.453 175.127,299.453 L175.127,300.451 Z M164.329,299.634 C161.882,299.634 159.664,299.453 159.664,299.453 L159.664,300.451 C160.3,300.495 161.203,300.766 161.746,301.313 C162.566,302.126 162.701,302.986 162.701,306.747 L162.701,323.279 C162.701,323.279 162.246,322.375 161.25,320.879 L146.89,299.498 C146.89,299.498 145.667,299.591 143.72,299.591 C141.365,299.591 139.279,299.453 139.279,299.453 L139.279,300.451 C139.917,300.495 140.865,300.766 141.407,301.313 C142.225,302.126 142.36,302.986 142.36,306.747 L142.36,321.513 C142.36,325.774 142.316,327.131 141.5,328.081 C140.777,328.944 139.824,329.214 139.19,329.261 L139.19,330.256 C139.19,330.256 141.137,330.076 143.672,330.076 C145.986,330.076 148.203,330.256 148.203,330.256 L148.203,329.261 C147.571,329.214 146.662,328.944 146.121,328.4 C145.308,327.583 145.123,326.725 145.123,322.964 L145.123,304.71 C145.17,304.798 145.531,305.57 146.209,306.565 L162.2,330.346 L165.508,330.346 L165.508,308.196 C165.508,303.941 165.555,302.581 166.37,301.629 C167.094,300.766 168.044,300.495 168.675,300.451 L168.675,299.453 C168.675,299.453 167.319,299.634 164.329,299.634 Z M112.493,300.451 C113.127,300.495 114.079,300.766 114.623,301.313 C115.438,302.126 115.573,302.986 115.573,306.747 L115.573,321.513 C115.573,325.774 115.528,327.131 114.713,328.081 C113.989,328.944 113.037,329.214 112.403,329.261 L112.403,330.256 C112.403,330.256 115.664,330.167 119.878,330.167 L131.611,330.167 L131.611,329.214 C131.611,325.817 131.791,323.915 131.791,323.915 L130.569,323.915 C130.569,324.006 130.433,326.044 129.39,327.131 C128.529,328.037 127.396,328.081 125.496,328.081 L122.958,328.081 C120.557,328.081 120.105,327.766 120.105,325.68 L120.105,315.308 L124.678,315.308 C126.535,315.308 127.489,315.4 128.167,316.171 C128.982,317.075 128.982,318.479 128.982,318.524 L130.16,318.524 C130.16,318.524 130.024,317.211 130.024,314.313 C130.024,311.413 130.115,310.01 130.115,310.01 L128.982,310.01 C128.982,310.053 129.028,311.459 128.212,312.365 C127.532,313.134 126.535,313.271 124.726,313.271 L120.105,313.271 L120.105,301.718 L125.268,301.718 C126.852,301.718 128.303,301.718 129.208,302.533 C130.478,303.666 130.387,305.296 130.387,305.387 L131.519,305.387 C131.519,305.387 131.38,303.893 131.38,300.63 L131.38,299.634 L119.606,299.634 C116.118,299.634 112.493,299.453 112.493,299.453 L112.493,300.451 Z M85.706,300.451 C86.341,300.495 87.292,300.766 87.834,301.313 C88.649,302.126 88.786,302.986 88.786,306.747 L88.786,321.513 C88.786,325.774 88.742,327.131 87.926,328.081 C87.2,328.944 86.249,329.214 85.615,329.261 L85.615,330.256 C85.615,330.256 88.877,330.167 93.091,330.167 L104.822,330.167 L104.822,329.214 C104.822,325.817 105.003,323.915 105.003,323.915 L103.781,323.915 C103.781,324.006 103.645,326.044 102.603,327.131 C101.741,328.037 100.608,328.081 98.706,328.081 L96.17,328.081 C93.769,328.081 93.316,327.766 93.316,325.68 L93.316,315.308 L97.89,315.308 C99.75,315.308 100.701,315.4 101.38,316.171 C102.197,317.075 102.197,318.479 102.197,318.524 L103.372,318.524 C103.372,318.524 103.237,317.211 103.237,314.313 C103.237,311.413 103.328,310.01 103.328,310.01 L102.197,310.01 C102.197,310.053 102.239,311.459 101.423,312.365 C100.746,313.134 99.75,313.271 97.937,313.271 L93.316,313.271 L93.316,301.718 L98.481,301.718 C100.067,301.718 101.517,301.718 102.421,302.533 C103.689,303.666 103.599,305.296 103.599,305.387 L104.732,305.387 C104.732,305.387 104.597,303.893 104.597,300.63 L104.597,299.634 L92.818,299.634 C89.33,299.634 85.706,299.453 85.706,299.453 L85.706,300.451 Z M55.114,300.451 L55.114,299.453 C55.114,299.453 57.378,299.634 59.101,299.634 C61.864,299.634 63.539,299.498 65.035,299.498 C66.712,299.498 68.931,299.546 70.651,300.045 C75.726,301.448 76.314,305.525 76.314,307.562 C76.314,314.448 70.108,315.988 69.747,316.077 C69.747,316.077 74.411,321.921 77.039,325.094 C79.123,327.63 80.754,329.214 82.657,329.261 L82.657,330.167 C82.657,330.167 81.253,330.394 78.713,330.394 C75.68,330.394 74.684,329.577 72.373,326.769 C71.104,325.231 66.213,318.614 65.217,317.119 L62.634,317.119 L62.634,322.964 C62.634,326.725 62.816,327.583 63.631,328.4 C64.173,328.944 65.08,329.214 65.714,329.261 L65.714,330.256 C65.714,330.256 62.997,330.076 60.459,330.076 C58.014,330.076 55.024,330.256 55.024,330.256 L55.024,329.261 C55.658,329.214 56.609,328.944 57.334,328.081 C58.149,327.131 58.194,325.774 58.194,321.513 L58.194,306.747 C58.194,302.986 58.059,302.126 57.243,301.313 C56.699,300.766 55.748,300.495 55.114,300.451 Z M62.634,315.038 C62.634,315.038 63.631,315.264 65.623,315.264 C66.168,315.264 66.712,315.172 67.029,315.127 C69.292,314.718 71.376,312.772 71.376,307.971 C71.376,302.034 67.481,301.313 64.807,301.313 C63.631,301.313 62.634,301.492 62.634,301.492 L62.634,315.038 Z M261.237,299.591 L261.237,300.587 C261.237,303.849 261.102,305.479 261.102,305.479 L262.234,305.479 C262.234,305.387 262.098,303.62 263.367,302.49 C264.273,301.675 265.724,301.629 267.306,301.629 L270.296,301.629 L270.296,321.513 C270.296,325.728 270.256,327.131 269.437,328.081 C268.709,328.944 267.306,329.214 266.493,329.261 L266.493,330.256 C266.493,330.256 269.394,330.076 272.561,330.076 C275.144,330.076 278.542,330.256 278.542,330.256 L278.542,329.261 C277.682,329.214 276.46,328.99 275.824,328.4 C274.962,327.583 274.827,326.725 274.827,322.964 L274.827,301.629 L277.817,301.629 C279.404,301.629 280.854,301.675 281.758,302.49 C283.026,303.62 282.89,305.387 282.89,305.479 L284.021,305.479 C284.021,305.479 283.886,303.849 283.886,300.587 L283.886,299.591 L261.237,299.591 Z" id="Screenpartner" fill="#6E979B"></path>
            <g id="Symbol" transform="translate(49.000000, 0.000000)">
                <path d="M162.464,2.181 C162.412,2.298 162.373,2.432 162.32,2.567 L162.32,31.373 L162.346,31.373 C162.346,31.373 162.058,34.801 165.664,36.608 L166.44,36.952 C166.453,36.952 166.464,36.965 166.48,36.97 L239.995,69.099 L239.953,69.124 L268.246,81.482 C270.542,82.476 272.497,84.008 273.902,85.872 C274.466,86.613 274.963,87.508 275.373,88.5 C277.616,86.527 280.28,82.923 280.584,76.847 L280.584,61.835 C280.272,52.633 274.576,48.887 272.785,47.944 L165.538,1.071 L165.538,1.12 C165.21,0.959 164.865,0.884 164.526,0.884 C163.674,0.884 162.859,1.361 162.464,2.181 Z" id="Clip-2" fill="#6E979B"></path>
                <path d="M125.529,1.709 L125.529,1.704 L8.651,49.035 C6.627,50.187 1.72,53.816 1.222,62.081 L1.3,78.141 C1.704,84.443 4.677,88.03 6.939,89.868 C7.432,88.373 8.164,87.012 8.98,85.981 C10.423,84.149 12.411,82.677 14.717,81.727 L17.385,80.654 L125.504,37.204 C128.119,35.861 128.673,33.679 128.774,32.612 L128.774,3.297 C128.741,3.119 128.68,2.941 128.597,2.77 C128.199,1.949 127.385,1.481 126.535,1.481 C126.198,1.481 125.854,1.555 125.529,1.709 Z" id="Clip-5" fill="#00000F"></path>
                <path d="M17.945,98.401 C17.023,98.775 16.232,99.352 15.702,100.033 C15.317,100.511 15.007,101.327 14.914,101.865 L114.788,142.325 C116.655,143.349 118.403,144.863 119.598,146.377 C120.506,147.528 121.311,149.074 121.79,150.773 L121.807,150.754 C124.101,149.307 128.514,145.456 128.78,137.378 L128.78,123.236 C128.486,114.298 122.295,110.171 119.926,108.921 L56.066,83.046 L17.945,98.401 Z" id="Clip-8" fill="#6E979B"></path>
                <path d="M5.449,169.514 L5.449,169.519 C5.433,169.519 5.424,169.531 5.409,169.538 L4.619,169.85 C0.972,171.547 1.141,174.974 1.141,174.974 L1.121,174.982 L0.213,203.78 C0.248,203.898 0.29,204.044 0.341,204.167 C0.861,205.339 2.216,205.841 3.373,205.339 L3.384,205.369 L112.052,161.905 C112.396,161.721 112.897,161.451 113.479,161.06 C113.268,160.722 113.051,160.409 112.824,160.127 C111.637,158.613 109.89,157.098 107.998,156.075 L73.737,142.189 L5.449,169.514 Z" id="Clip-11" fill="#00000F"></path>
                <path d="M162.237,130.059 L162.202,130.059 L162.28,237.429 C162.329,238.128 162.749,240.691 165.657,242.487 L166.941,243.149 C166.941,243.149 166.976,243.163 166.985,243.168 L191.507,255.936 C194.81,256.422 195.766,254.532 195.766,253.521 L195.766,146.863 C196.018,144.708 196.774,143.041 197.691,141.773 L162.573,126.468 C162.373,127.575 162.237,128.772 162.237,130.059 Z" id="Clip-14" fill="#6E979B"></path>
                <path d="M171.076,108.064 C170.077,108.577 168.136,109.755 166.328,111.796 L206.129,129.132 L267.759,101.345 C267.635,100.81 267.382,100.174 267.071,99.763 C266.543,99.07 265.767,98.486 264.826,98.07 L229.289,82.542 L171.076,108.064 Z" id="Clip-17" fill="#00000F"></path>
            </g>
        </g>
    </g>
</svg>